<svg width="24" height="24" fill="none" xmlns="http://www.w3.org/2000/svg"><g id="icons" stroke="#fff" stroke-width="1.5" stroke-linecap="round" stroke-linejoin="round"><path id="Vector" d="M20 21v-8a2 2 0 00-2-2H6a2 2 0 00-2 2v8"/><path id="Vector_2" d="M4 16s.5-1 2-1 2.5 2 4 2 2.5-2 4-2 2.5 2 4 2 2-1 2-1"/><path id="Vector_3" d="M2 21h20"/><path id="Vector_4" d="M7 8v2"/><path id="Vector_5" d="M12 8v2"/><path id="Vector_6" d="M17 8v2"/><path id="Vector_7" d="M7 4h.01"/><path id="Vector_8" d="M12 4h.01"/><path id="Vector_9" d="M17 4h.01"/></g></svg>