<svg width="16" height="16" fill="none" xmlns="http://www.w3.org/2000/svg"><g id="social_icons"><g id="Layer_x0020_1"><path id="Vector" fill-rule="evenodd" clip-rule="evenodd" d="M5.921 15.798c0 .112.09.202.202.202h2.873c.11 0 .2-.09.2-.202V7.937h2.084c.104 0 .191-.08.2-.184l.2-2.37a.202.202 0 00-.2-.218H9.197v-1.68c0-.394.32-.713.713-.713h1.605c.112 0 .202-.09.202-.202V.202A.201.201 0 0011.515 0H8.803a2.882 2.882 0 00-2.882 2.882v2.283H4.485a.202.202 0 00-.202.202v2.368c0 .112.09.202.202.202h1.436v7.861z" fill="#fff"/></g></g></svg>