<svg width="16" height="16" fill="none" xmlns="http://www.w3.org/2000/svg"><g id="social_icons" clip-path="url(#clip0_187_9414)"><g id="Layer_x0020_1"><path id="Vector" fill-rule="evenodd" clip-rule="evenodd" d="M.32 16h3.302V5.333H.321V16zm8.58-5.6c0-1.499.69-2.393 2.012-2.393 1.214 0 1.798.858 1.798 2.394V16h3.286V9.247c0-2.858-1.62-4.24-3.881-4.24C9.852 5.008 8.9 6.77 8.9 6.77V5.333H5.733V16h3.168v-5.6zM1.957 3.938a1.961 1.961 0 001.953-1.97A1.96 1.96 0 001.956 0 1.96 1.96 0 00.004 1.968a1.96 1.96 0 001.952 1.969z" fill="#fff"/></g></g><defs><clipPath id="clip0_187_9414"><path fill="#fff" d="M0 0h16v16H0z"/></clipPath></defs></svg>