<svg width="22" height="16" fill="none" xmlns="http://www.w3.org/2000/svg"><g clip-path="url(#clip0_206_19996)"><path d="M0 0h21.333v16H0V0z" fill="#012169"/><path d="M2.5 0l8.133 6.033L18.733 0h2.6v2.067l-8 5.966 8 5.934V16h-2.666l-8-5.967L2.7 16H0v-2l7.967-5.933L0 2.133V0h2.5z" fill="#fff"/><path d="M14.133 9.367l7.2 5.3V16L12.3 9.367h1.833zM8 10.033l.2 1.167L1.8 16H0l8-5.967zM21.333 0v.1l-8.3 6.267L13.1 4.9 19.667 0h1.666zM0 0l7.967 5.867h-2L0 1.4V0z" fill="#C8102E"/><path d="M8.033 0v16h5.334V0H8.033zM0 5.333v5.334h21.333V5.333H0z" fill="#fff"/><path d="M0 6.433v3.2h21.333v-3.2H0zM9.1 0v16h3.2V0H9.1z" fill="#C8102E"/></g><defs><clipPath id="clip0_206_19996"><rect width="21.333" height="16" rx="4" fill="#fff"/></clipPath></defs></svg>