<svg width="162" height="28" fill="none" xmlns="http://www.w3.org/2000/svg"><path d="M7.28 1.75H0v19.74h7.28c5.264 0 10.752-1.372 10.752-9.884 0-8.484-5.488-9.856-10.752-9.856zm0 15.82h-2.8V5.67h2.8c3.5 0 6.272.28 6.272 5.936 0 5.684-2.772 5.964-6.272 5.964zm12.148-3.332c0 4.004 2.492 7.532 7.924 7.532 4.9 0 7.224-3.22 7.504-5.264h-4.48c-.28 1.064-1.456 1.624-3.024 1.624-2.548 0-3.724-1.148-3.724-2.772h10.724v-1.4c0-4.284-3.08-6.888-7.476-6.888s-7.448 2.688-7.448 7.168zm4.2-1.4c0-1.064.756-2.128 3.248-2.128s3.276 1.064 3.276 2.128h-6.524zm26.365 4.76c0-2.94-2.52-3.64-5.264-4.536-2.24-.728-3.64-1.148-3.64-1.82 0-.56.588-.812 1.652-.812 1.54 0 2.296.756 2.296 1.764h4.48c0-2.744-1.96-5.124-6.748-5.124-3.892 0-6.16 1.456-6.16 3.976 0 3.164 3.22 3.864 5.852 4.732 2.268.756 3.052.952 3.052 1.68 0 .672-.756.952-1.96.952-2.352 0-3.108-.952-3.108-2.044h-4.48c0 3.304 2.24 5.404 7.448 5.404 4.872 0 6.58-1.792 6.58-4.172zm7.47-11.648c1.652 0 2.688-.784 2.688-2.24 0-1.428-1.036-2.24-2.688-2.24-1.652 0-2.632.812-2.632 2.24 0 1.456.98 2.24 2.632 2.24zm-5.796 15.54h12.32v-3.92h-4.004V9.422c0-1.568-.868-2.436-2.436-2.352l-5.32.28v3.92l3.444-.168v6.468h-4.004v3.92z" fill="#fff"/><path d="M80.56 7.35c-1.26 0-2.716.14-3.556 1.232-1.484-1.092-3.444-1.512-5.6-1.512-4.452 0-7.98 1.792-7.98 5.516 0 4.648 5.46 5.404 10.64 3.556v1.12c-2.576.616-5.488.952-8.708 1.288l.476 2.52c4.34-.728 9.408-1.652 9.408.42 0 1.54-1.736 1.68-10.892 1.68v3.92c10.5 0 15.4-.476 15.4-4.648 0-2.996-2.996-3.836-6.216-3.64 3.892-1.316 6.384-2.996 6.384-5.656 0-.756-.224-1.4-.392-1.624.392-.252.896-.252 1.316-.252h.952V7.35H80.56zm-8.876 7.392c-2.688 0-3.78-.672-3.78-1.876 0-1.176 1.092-1.876 3.78-1.876 2.688 0 3.752.7 3.752 1.876 0 1.204-1.064 1.876-3.752 1.876zm20.582-3.752c2.156 0 2.912.98 2.912 3.556v6.944h4.48v-7.644c0-4.368-2.184-6.776-5.796-6.776-3.024 0-4.788 1.988-5.348 4.508h-1.12l.84-2.52V7.35h-4.48v14.14h4.48v-5.236c0-3.976 1.596-5.264 4.032-5.264zm20.72 10.78l11.676-.28v-3.92l-9.604.28V1.75h-4.48v17.668c0 1.54.868 2.38 2.408 2.352zm13.356-4.144c0 1.456.756 4.144 5.152 4.144 3.948 0 5.32-1.988 5.852-4.34h1.12l-.7 1.68v.28c0 1.344.756 2.1 2.1 2.1h3.108v-3.92h-2.044v-3.976c0-4.648-3.416-6.524-7.308-6.524-3.948 0-7 2.1-7 5.684h4.2c0-1.288 1.008-2.044 2.8-2.044 1.932 0 2.828.7 2.828 1.848l-4.452.616c-4.2.588-5.656 2.016-5.656 4.452zm4.48-.84c0-.812.672-1.008 2.016-1.204l3.612-.504c0 1.736-1.624 2.772-4.088 2.772-.756 0-1.54-.252-1.54-1.064zm13.826 4.704h4.48v-.868l-.84-2.52h1.12c.728 1.876 2.072 3.668 5.572 3.668 4.088 0 6.132-3.36 6.132-7.364s-2.044-7.336-6.132-7.336c-3.5 0-4.844 1.792-5.572 3.668h-1.12l.84-2.52V.91h-4.48v20.58zm4.48-7.084c0-2.38 1.344-3.416 3.752-3.416 2.408 0 3.752 1.036 3.752 3.416s-1.344 3.444-3.752 3.444c-2.408 0-3.752-1.064-3.752-3.444z" fill="#fff"/></svg>