<svg width="24" height="24" fill="none" xmlns="http://www.w3.org/2000/svg"><g id="instruments" clip-path="url(#clip0_131_8427)"><g id="Group"><path id="Vector" d="M4.25.3h15.5C22.1.3 24 2.2 24 4.55v14.9c0 2.35-1.9 4.25-4.25 4.25H4.25C1.9 23.7 0 21.8 0 19.45V4.55C0 2.2 1.9.3 4.25.3z" fill="#001834"/><g id="Group_2" fill="#00A9FF"><path id="Vector_2" d="M5.4 16.71V6.42c0-.07.03-.11.1-.11.17 0 .33 0 .56-.01.24-.01.49-.01.76-.02s.56-.01.87-.02c.31-.01.61-.01.91-.01.82 0 1.5.1 2.06.31.5.17.96.45 1.34.82.32.32.57.71.73 1.14.15.42.23.85.23 1.3 0 .86-.2 1.57-.6 2.13-.4.56-.96.98-1.61 1.22-.68.25-1.43.34-2.25.34-.24 0-.4 0-.5-.01-.1-.01-.24-.01-.43-.01v3.21c.01.07-.04.13-.11.14H5.52c-.08 0-.12-.04-.12-.13zm2.18-8.47v3.36c.14.01.27.02.39.02h.53c.69 0 1.488-.162 1.97-.71.415-.471.416-1.406.08-1.92-.399-.61-1.196-.787-1.88-.77-.26 0-.49 0-.68.01-.2-.01-.34 0-.41.01z"/><path id="Vector_3" d="M19.2 10.99c-.3-.16-.62-.27-.96-.34-.37-.08-.74-.13-1.12-.13-.2-.01-.41.02-.6.07-.13.03-.24.1-.31.2a.53.53 0 00-.08.27c0 .09.04.18.1.26.09.11.21.2.34.27.23.12.47.23.71.33.54.18 1.06.43 1.54.73.33.21.6.49.79.83.16.32.24.67.23 1.03.01.47-.13.94-.39 1.33-.28.4-.67.71-1.12.89-.49.21-1.09.32-1.81.32-.46 0-.91-.04-1.36-.13-.35-.06-.7-.17-1.02-.32-.07-.04-.12-.11-.11-.19v-1.74c0-.03.01-.07.04-.09.03-.02.06-.01.09.01.39.23.8.39 1.24.49.38.1.78.15 1.18.15.38 0 .65-.05.83-.14.16-.07.27-.24.27-.42 0-.14-.08-.27-.24-.4-.16-.13-.49-.28-.98-.47-.51-.18-.98-.42-1.42-.72a2.59 2.59 0 01-.76-.85c-.16-.32-.24-.67-.23-1.02 0-.43.12-.84.34-1.21.25-.4.62-.72 1.05-.92.47-.24 1.06-.35 1.77-.35.41 0 .83.03 1.24.09.3.04.59.12.86.23.04.01.08.05.1.09.01.04.02.08.02.12v1.63c0 .04-.02.08-.05.1-.09.02-.14.02-.18 0z"/></g></g></g><defs><clipPath id="clip0_131_8427"><path fill="#fff" d="M0 0h24v24H0z"/></clipPath></defs></svg>