<svg width="24" height="24" fill="none" xmlns="http://www.w3.org/2000/svg"><g id="instruments" clip-path="url(#clip0_131_8418)"><g id="Group"><path id="Vector" d="M4.25.3h15.5C22.1.3 24 2.2 24 4.55v14.9c0 2.35-1.9 4.25-4.25 4.25H4.25C1.9 23.7 0 21.8 0 19.45V4.55C0 2.2 1.9.3 4.25.3z" fill="#390000"/><g id="Group_2" fill="#FF9A00"><path id="Vector_2" d="M11.63 14.34H7.91l-.76 2.35c-.02.09-.1.15-.19.14H5.08c-.11 0-.14-.06-.11-.18l3.22-9.27c.03-.1.06-.21.1-.33.04-.21.06-.43.06-.65-.01-.05.03-.1.08-.11h2.59c.08 0 .12.03.13.08l3.65 10.3c.03.11 0 .16-.1.16h-2.09c-.07.01-.14-.04-.16-.11l-.82-2.38zm-3.14-2.03h2.54L9.75 8.14l-1.26 4.17z"/><path id="Vector_3" d="M16.98 8c-.33.01-.65-.12-.89-.35a1.3 1.3 0 01-.34-.92c-.01-.34.12-.66.36-.89.24-.23.56-.35.89-.35.39 0 .69.12.91.35.22.24.34.56.33.89.01.34-.11.67-.35.92-.23.24-.57.37-.91.35z"/><path id="Vector_4" d="M15.86 16.68v-7.7c0-.1.04-.14.13-.14h1.98c.09 0 .13.05.13.14v7.7c0 .11-.04.16-.13.16h-1.96c-.1 0-.15-.06-.15-.16z"/></g></g></g><defs><clipPath id="clip0_131_8418"><path fill="#fff" d="M0 0h24v24H0z"/></clipPath></defs></svg>