<svg width="24" height="24" fill="none" xmlns="http://www.w3.org/2000/svg"><g id="instruments" clip-path="url(#clip0_131_8406)"><path id="Vector" d="M24 2.176A2.176 2.176 0 0021.824 0H2.176A2.176 2.176 0 000 2.176v19.648C0 23.026.974 24 2.176 24h19.648A2.176 2.176 0 0024 21.824V2.176zM7.997 4.685c.798 0 1.466.625 1.466 1.444a1.45 1.45 0 01-1.466 1.445 1.45 1.45 0 01-1.466-1.445c0-.819.668-1.444 1.466-1.444zm9.809 13.82c-1.488 0-2.2-.884-2.2-2.092 0-.344.044-.711.152-1.078l.711-2.544a2.59 2.59 0 00.108-.776c0-.819-.496-1.315-1.294-1.315-1.013 0-1.682.727-2.026 2.129l-1.38 5.535H9.462l.433-1.74c-.71 1.166-1.695 1.888-2.911 1.888-1.466 0-2.156-.844-2.156-2.117 0-.322.043-.718.13-1.085l1.099-4.492H4.354L4.87 8.91h4.096L7.35 15.324c-.108.41-.15.75-.15.987 0 .41.201.53.517.6.192.044 1.724.014 2.559-1.84l1.062-4.253H9.613l.517-1.909h3.687l-.474 2.167c.646-1.207 1.94-2.354 3.212-2.354 1.358 0 2.48.967 2.48 2.822 0 .474-.065.99-.238 1.572l-.69 2.478c-.064.26-.107.475-.107.669 0 .431.172.646.496.646.323 0 .733-.237 1.207-1.552l.949.367c-.561 1.962-1.574 2.78-2.846 2.78z" fill="#F36"/></g><defs><clipPath id="clip0_131_8406"><path fill="#fff" d="M0 0h24v24H0z"/></clipPath></defs></svg>