<svg width="40" height="40" fill="none" xmlns="http://www.w3.org/2000/svg"><g clip-path="url(#clip0_143_5174)"><path d="M39.188 9.077L30.166.683A2.55 2.55 0 0028.428 0H9.6a2.554 2.554 0 00-2.548 2.55v12.11H2.55A2.552 2.552 0 000 17.21v8.828a2.553 2.553 0 002.55 2.557h4.502v8.855A2.554 2.554 0 009.603 40H37.45A2.553 2.553 0 0040 37.45V10.943a2.56 2.56 0 00-.813-1.867zm-1.09.454h-6.866a1.478 1.478 0 01-1.476-1.476V1.769l8.342 7.762zM1.073 26.041v-8.829a1.478 1.478 0 011.477-1.476h25.262a1.478 1.478 0 011.477 1.476v8.829a1.478 1.478 0 01-1.477 1.476H2.55a1.478 1.478 0 01-1.477-1.476zm37.854 11.406a1.478 1.478 0 01-1.477 1.476H9.603a1.477 1.477 0 01-1.476-1.476v-8.853h19.685a2.552 2.552 0 002.55-2.55v-8.828a2.553 2.553 0 00-2.55-2.557H8.125V2.549a1.477 1.477 0 011.477-1.476H28.43c.085 0 .17.007.254.022v6.957a2.552 2.552 0 002.55 2.55h7.656c.027.112.041.226.042.34l-.005 26.505zM9.4 18.437H7.036a.537.537 0 00-.537.537v5.307a.537.537 0 101.074 0v-1.718H9.4a2.063 2.063 0 000-4.126v0zm0 3.052H7.573v-1.981H9.4a.99.99 0 010 1.978v.003zm11.792-3.052h-1.756a.536.536 0 00-.536.537v5.307a.537.537 0 00.537.537h1.755a2.676 2.676 0 002.673-2.673v-1.039a2.675 2.675 0 00-2.673-2.669zm1.598 3.708a1.6 1.6 0 01-1.598 1.599h-1.218v-4.236h1.218a1.6 1.6 0 011.598 1.598v1.04zm-5.127.806c0 .199-.04.395-.12.578-.321.768-1.271 1.286-2.363 1.286-1.091 0-2.039-.518-2.362-1.29a.535.535 0 01.491-.753.538.538 0 01.499.338c.128.306.653.63 1.372.63.72 0 1.25-.324 1.374-.63a.39.39 0 00.036-.156c0-.252-.261-.511-.665-.662-.04-.015-.216-.069-.768-.126l-.044-.007h-.025c-.495-.052-.819-.111-1.021-.186-.844-.312-1.368-.953-1.368-1.67 0-.198.041-.395.12-.577.322-.768 1.271-1.286 2.361-1.286 1.09 0 2.042.518 2.365 1.289a.537.537 0 11-.99.416c-.129-.307-.654-.632-1.375-.632-.72 0-1.244.325-1.372.631a.407.407 0 00-.036.157c0 .252.263.512.668.662.04.015.213.067.761.126l.046.006h.023c.498.052.825.112 1.03.188.841.314 1.363.952 1.363 1.668z" fill="#fff" stroke="#fff" stroke-width=".5"/></g><defs><clipPath id="clip0_143_5174"><path fill="#fff" d="M0 0h40v40H0z"/></clipPath></defs></svg>