<svg width="24" height="24" fill="none" xmlns="http://www.w3.org/2000/svg"><g clip-path="url(#clip0_114_19355)"><path d="M14 5.25a.75.75 0 000 1.5v-1.5zM18 6h.75a.75.75 0 00-.75-.75V6zm-.75 4a.75.75 0 001.5 0h-1.5zm-3.78-.53a.75.75 0 101.06 1.06l-1.06-1.06zM10 18.75a.75.75 0 000-1.5v1.5zM6 18h-.75a.75.75 0 00.75.75V18zm.75-4a.75.75 0 00-1.5 0h1.5zm3.78.53a.75.75 0 10-1.06-1.06l1.06 1.06zm-6.8 7.925l.34-.668-.34.668zM1.545 20.27l.668-.34-.668.34zm20.91 0l-.668-.34.668.34zm-2.185 2.185l-.34-.668.34.668zm0-20.91l-.34.668.34-.668zm2.185 2.185l-.668.34.668-.34zM3.73 1.545l.34.668-.34-.668zM1.545 3.73l.668.34-.668-.34zM14 6.75h4v-1.5h-4v1.5zM17.25 6v4h1.5V6h-1.5zm.22-.53l-4 4 1.06 1.06 4-4-1.06-1.06zM10 17.25H6v1.5h4v-1.5zM6.75 18v-4h-1.5v4h1.5zm-.22.53l4-4-1.06-1.06-4 4 1.06 1.06zM9 1.75h6V.25H9v1.5zM22.25 9v6h1.5V9h-1.5zM15 22.25H9v1.5h6v-1.5zM1.75 15V9H.25v6h1.5zM9 22.25c-1.413 0-2.427 0-3.223-.066-.787-.064-1.295-.188-1.706-.397l-.681 1.336c.658.336 1.385.485 2.265.556.871.072 1.957.071 3.345.071v-1.5zM.25 15c0 1.388 0 2.474.07 3.345.073.88.221 1.607.557 2.265l1.336-.68c-.21-.412-.333-.92-.397-1.707-.065-.796-.066-1.81-.066-3.223H.25zm3.82 6.787a4.25 4.25 0 01-1.857-1.857l-1.336.68a5.75 5.75 0 002.513 2.513l.68-1.336zM22.25 15c0 1.413 0 2.427-.066 3.223-.064.787-.188 1.295-.397 1.707l1.336.68c.336-.658.485-1.385.556-2.265.072-.871.071-1.957.071-3.345h-1.5zM15 23.75c1.388 0 2.474 0 3.345-.07.88-.072 1.607-.221 2.265-.557l-.68-1.336c-.412.21-.92.333-1.707.397-.796.065-1.81.066-3.223.066v1.5zm6.787-3.82a4.251 4.251 0 01-1.857 1.857l.68 1.336a5.75 5.75 0 002.513-2.513l-1.336-.68zM15 1.75c1.413 0 2.427 0 3.223.066.787.064 1.295.188 1.707.397l.68-1.336C19.952.54 19.225.393 18.345.32 17.474.249 16.388.25 15 .25v1.5zM23.75 9c0-1.388 0-2.474-.07-3.345-.072-.88-.221-1.607-.557-2.265l-1.336.68c.21.412.333.92.397 1.707.065.796.066 1.81.066 3.223h1.5zm-3.82-6.787a4.25 4.25 0 011.857 1.858l1.336-.681A5.75 5.75 0 0020.61.877l-.68 1.336zM9 .25c-1.388 0-2.474 0-3.345.07-.88.073-1.607.221-2.265.557l.68 1.336c.412-.21.92-.333 1.707-.397C6.573 1.75 7.587 1.75 9 1.75V.25zM1.75 9c0-1.413 0-2.427.066-3.223.064-.787.188-1.295.397-1.706L.877 3.39C.54 4.048.393 4.775.32 5.655.249 6.526.25 7.612.25 9h1.5zM3.39.877A5.75 5.75 0 00.877 3.39l1.336.68a4.25 4.25 0 011.858-1.857L3.39.877z" fill="#7D838C"/></g><defs><clipPath id="clip0_114_19355"><path fill="#fff" d="M0 0h24v24H0z"/></clipPath></defs></svg>