<svg width="16" height="16" fill="none" xmlns="http://www.w3.org/2000/svg"><g clip-path="url(#clip0_130_9419)"><path fill-rule="evenodd" clip-rule="evenodd" d="M9.855 7.578a26.69 26.69 0 00-.512-1.12c1.54-.666 2.778-1.572 3.7-2.72a6.577 6.577 0 011.547 3.89c-1.717-.281-3.296-.297-4.735-.05zm1.813 5.915a27.444 27.444 0 00-1.28-4.597c1.25-.177 2.627-.131 4.133.13a6.609 6.609 0 01-2.853 4.467zm-7.724-.286c1.313-2.06 2.989-3.4 5.065-4.018a26.166 26.166 0 011.363 4.973 6.571 6.571 0 01-6.428-.955zM1.4 7.83c2.566-.004 4.779-.299 6.633-.882.155.316.304.634.446.955-2.252.704-4.109 2.147-5.557 4.32A6.509 6.509 0 011.4 7.83zm3.618-5.72a29.692 29.692 0 012.358 3.588c-1.62.477-3.554.722-5.79.737A6.627 6.627 0 015.019 2.11zm7.01.663c-.802 1.036-1.911 1.855-3.324 2.453A30.696 30.696 0 006.38 1.6a6.521 6.521 0 015.65 1.172zM8 0a8 8 0 100 16A8 8 0 008 0z" fill="#fff"/></g><defs><clipPath id="clip0_130_9419"><path fill="#fff" d="M0 0h16v16H0z"/></clipPath></defs></svg>