<svg width="16" height="16" fill="none" xmlns="http://www.w3.org/2000/svg"><g clip-path="url(#clip0_130_21747)"><path fill-rule="evenodd" clip-rule="evenodd" d="M.321 16h3.302V5.333H.32V16zm8.58-5.6c0-1.499.69-2.393 2.012-2.393 1.214 0 1.797.858 1.797 2.394V16h3.286V9.247c0-2.858-1.62-4.24-3.88-4.24C9.852 5.008 8.9 6.77 8.9 6.77V5.333H5.734V16H8.9v-5.6zM1.956 3.938a1.961 1.961 0 001.954-1.97A1.96 1.96 0 001.956 0 1.96 1.96 0 00.004 1.968a1.96 1.96 0 001.952 1.969z" fill="#fff"/></g><defs><clipPath id="clip0_130_21747"><path fill="#fff" d="M0 0h16v16H0z"/></clipPath></defs></svg>