<svg width="16" height="16" fill="none" xmlns="http://www.w3.org/2000/svg"><path fill-rule="evenodd" clip-rule="evenodd" d="M1.982 11.118v-2.65c.761 0 2.819-.115 3.44.17.894.409.833 1.881-.02 2.305-.602.293-2.672.175-3.42.175zm12.405-7.64h-4.319V4.48h4.319V3.478zm-2.034 3.406c.97 0 1.586.593 1.652 1.557h-3.31c.137-.947.661-1.557 1.658-1.557zm.069 6.21c1.432-.001 3.29-.826 3.477-2.4h-1.962c-.312.59-.791.842-1.462.842-1.143 0-1.782-.686-1.827-1.828h5.35c.038-2.439-.781-4.408-3.646-4.408-2.397 0-3.64 1.651-3.64 3.947 0 2.326 1.335 3.846 3.71 3.846zM1.982 4.631c.878 0 2.55-.11 3.337.156.693.288.71 1.436.13 1.79-.645.394-2.654.246-3.467.246V4.632zm3.9 8.076c1.373-.283 2.269-1.466 2.269-2.865 0-1.095-.48-1.949-1.535-2.332.858-.438 1.218-1.05 1.218-2.03 0-1.808-1.356-2.55-3.031-2.574H0v9.937c1.658 0 4.325.19 5.882-.136z" fill="#fff"/></svg>