<svg width="12" height="12" fill="none" xmlns="http://www.w3.org/2000/svg"><g id="icons" clip-path="url(#clip0_114_9488)"><path id="Vector" d="M11.969 4.603a.636.636 0 00-.55-.438L7.957 3.85 6.586.645a.638.638 0 00-1.172 0L4.044 3.85.58 4.165A.638.638 0 00.218 5.28l2.618 2.296-.772 3.4a.638.638 0 00.948.69L6 9.88l2.987 1.785a.638.638 0 00.95-.69l-.773-3.4 2.618-2.295a.638.638 0 00.187-.678z" fill="#F9D442"/></g><defs><clipPath id="clip0_114_9488"><path fill="#fff" d="M0 0h12v12H0z"/></clipPath></defs></svg>