<svg width="16" height="16" fill="none" xmlns="http://www.w3.org/2000/svg"><g id="social_icons" clip-path="url(#clip0_187_9402)"><g id="Layer_x0020_1"><path id="Vector" fill-rule="evenodd" clip-rule="evenodd" d="M15.94 2.913c-.508.23-1.068.37-1.616.461.482-.08 1.197-1.233 1.336-1.686.04-.082-.019-.112-.09-.076a8.254 8.254 0 01-1.92.734c-.126.032-.202-.126-.3-.207-2.392-2.035-5.952.006-5.487 3.16.01.076.004.087-.066.076C5.16 4.983 2.975 4.04 1.2 2.017c-.077-.088-.118-.087-.182.007-.934 1.4-.26 3.346.976 4.31-.052.01-.698-.06-1.273-.357-.077-.05-.116-.021-.122.066-.078 1.37 1.17 2.97 2.528 3.204-.255.056-.517.096-1.248.039-.091-.018-.126.027-.091.115.55 1.497 1.735 1.943 2.623 2.197.119.02.238.02.357.048-.649.965-3.454 1.425-4.533 1.32-.075-.012-.357-.051-.175.097 6.41 4.225 14.392-.297 14.392-8.335 0-.104.122-.16.195-.215.334-.251 1.353-1.17 1.353-1.6 0-.043.005-.03-.06 0z" fill="#fff"/></g></g><defs><clipPath id="clip0_187_9402"><path fill="#fff" d="M0 0h16v16H0z"/></clipPath></defs></svg>